PathFileType	4	(X/Y/Z)	/Users/visionmauri/2_5_3_f_1_Sports2D/2_5_3_f_1_Sports2D_px_person00.trc
DataRate	CameraRate	NumFrames	NumMarkers	Units	OrigDataRate	OrigDataStartFrame	OrigNumFrames
30.0	30.0	9	22	m	30.0	255	341
Frame#	Time	Hip			RHip			RKnee			RAnkle			RBigToe			RSmallToe			RHeel			LHip			LKnee			LAnkle			LBigToe			LSmallToe			LHeel			Neck			Head			Nose			RShoulder			RElbow			RWrist			LShoulder			LElbow			LWrist			
		X1	Y1	Z1	X2	Y2	Z2	X3	Y3	Z3	X4	Y4	Z4	X5	Y5	Z5	X6	Y6	Z6	X7	Y7	Z7	X8	Y8	Z8	X9	Y9	Z9	X10	Y10	Z10	X11	Y11	Z11	X12	Y12	Z12	X13	Y13	Z13	X14	Y14	Z14	X15	Y15	Z15	X16	Y16	Z16	X17	Y17	Z17	X18	Y18	Z18	X19	Y19	Z19	X20	Y20	Z20	X21	Y21	Z21	X22	Y22	Z22
255	8.525	500.2951214149536	865.6641055731003	0.0	450.02936075647403	877.0748352218662	0.0	431.52671771355824	1070.389835806875	0.0	454.46164081400406	1245.6796217167164	0.0	418.84999252658594	1323.2045891069015	0.0	398.47865394899173	1309.5197942523018	0.0	474.3155812199809	1273.227728979527	0.0	550.6093406090812	878.0607502193885	0.0	549.4963944722074	1063.9831414698829	0.0	542.8217965452645	1259.2197392509504	0.0	539.9736151195215	1340.6036184613833	0.0	571.5571130297272	1334.7537517683868	0.0	531.4377080530072	1286.016642265265	0.0	516.6653437580115	556.8401445538138	0.0	513.7305721804636	417.67069183091655	0.0	502.49278986149614	503.2793436166502	0.0	421.0566043519043	589.5850071672476	0.0	378.5389142932805	724.7912811510175	0.0	351.46997835730355	820.2620420659968	0.0	607.9312657486387	600.113317439572	0.0	656.0214342994934	733.343513314131	0.0	689.4117140384458	818.6337415049876	0.0
256	8.55843137254902	501.49995030756116	865.8763825443996	0.0	450.07564721808063	877.3373772776353	0.0	431.62995572628273	1072.2600214437593	0.0	447.1565553882769	1260.7086500996566	0.0	412.63147570562734	1333.3538668345593	0.0	391.6240583637866	1323.0194343958005	0.0	466.1045729845847	1291.3134438794675	0.0	551.6453552988465	877.9614984260245	0.0	548.9625721503868	1066.0576592757498	0.0	542.8273095772087	1262.0519042447431	0.0	540.6037135981692	1339.3834133382838	0.0	571.6838303698333	1333.5488066227674	0.0	531.4672021515753	1290.2976106041554	0.0	518.2224285013447	554.8610020828472	0.0	513.862734856917	415.0081675942806	0.0	499.2234685400806	500.0799988886529	0.0	420.623870897032	588.8884509417643	0.0	378.3595110219465	724.4501886298955	0.0	352.8361238338335	820.0556332908162	0.0	609.6029818925099	598.7007994998372	0.0	656.1956962512555	732.7462335607911	0.0	689.8157069451478	820.9623869623545	0.0
257	8.59186274509804	502.4348174720199	865.88152482293	0.0	451.0026567607294	878.5265048391182	0.0	433.2695491813133	1074.3045276253877	0.0	441.82264145528376	1271.1483875103245	0.0	407.4480585244101	1338.295976290294	0.0	385.98143234285607	1330.2357052456011	0.0	459.8487498852396	1304.2970093959066	0.0	552.8382075430462	879.5772600431601	0.0	548.7754591434423	1068.0134985463535	0.0	543.1307888921428	1264.314051998929	0.0	540.8923130322326	1338.5763511584169	0.0	571.8139044466953	1332.8705700734681	0.0	532.0228799015811	1294.178199246619	0.0	518.7140776676222	553.1533289118166	0.0	514.431844078949	413.64317811151346	0.0	497.035074470012	498.81921708095314	0.0	419.8559041942453	588.9504485268009	0.0	378.10368254406245	724.0567310611912	0.0	353.17540740425216	820.7519932401442	0.0	610.3378292579265	596.5846605594344	0.0	655.770663135831	732.2788680367065	0.0	690.3549830993297	821.6858970861786	0.0
258	8.625294117647059	502.53929758145875	865.1980649822863	0.0	451.51807206706303	879.4258052607274	0.0	436.6185515798432	1075.2978049809396	0.0	438.9049402998156	1276.53972623658	0.0	403.26184332617026	1337.3312989064666	0.0	381.8241341345955	1330.4526584362422	0.0	456.25490879376576	1312.43537699284	0.0	553.3225932016834	881.4420315767333	0.0	548.5166733336558	1069.3801063562328	0.0	543.072145509432	1265.7518416602375	0.0	540.6065828639266	1338.0286433381268	0.0	571.6442963277152	1333.1302879999528	0.0	532.71227966573	1297.292548111426	0.0	518.4044584787523	552.296380572317	0.0	514.6602798013406	412.95354215603226	0.0	493.0867587715756	499.5525173067714	0.0	419.2881457269424	588.8594119789494	0.0	377.9232141643972	723.4517790969549	0.0	352.34435809449405	821.2105698737267	0.0	609.8457576386837	594.9911371309396	0.0	654.9594444690255	732.3192310162547	0.0	691.0232293872137	821.4842185984879	0.0
259	8.658725490196078	502.26633687397657	864.2141585068699	0.0	451.3320060736295	879.6652016202049	0.0	440.5508176674846	1075.707186710028	0.0	437.774684765496	1278.980640813688	0.0	401.269353390862	1333.1805205860273	0.0	379.8450548980387	1327.4069091227173	0.0	454.32583473656524	1317.8578502043329	0.0	553.2060960776483	882.0200544846089	0.0	548.0300350549924	1070.2789513815264	0.0	542.7298264420151	1266.4145176703516	0.0	540.0061949471486	1337.4768790223718	0.0	571.1731486086378	1333.8101587458304	0.0	533.1965701933004	1298.9177959465858	0.0	517.8904515311903	551.9758616087676	0.0	513.9978008384172	411.4690628309783	0.0	488.2626449224812	500.59037145786607	0.0	418.8916411856525	588.0764467836538	0.0	377.4750730802647	721.7380799544235	0.0	351.25004400345955	820.651265560744	0.0	608.5943227362048	594.4805177013301	0.0	653.9311734391342	732.1019185256982	0.0	691.4390835859383	821.6626409562392	0.0
260	8.692156862745097	502.163828060457	864.4345130101077	0.0	451.070637437901	880.3061717752228	0.0	443.65767546526877	1076.6975071470174	0.0	438.0837180225977	1280.7497268889842	0.0	402.7453888567068	1330.478951896411	0.0	380.95351406107164	1326.0319697266093	0.0	453.9339574872556	1322.3057520973387	0.0	552.8803700614482	881.7256800607663	0.0	547.9975754275769	1071.5369309096427	0.0	542.7392053859323	1266.780415177475	0.0	539.3904907340466	1337.532718187678	0.0	570.4047867378224	1334.8200269353483	0.0	533.3515170224281	1299.4756203932125	0.0	516.6994067258435	551.4120634361765	0.0	512.7903941150594	408.9816264566629	0.0	486.3395966724052	500.5674369429394	0.0	417.9564954010327	587.0331229570695	0.0	376.5048532673646	719.356096385625	0.0	350.41204985781366	819.9725024522611	0.0	607.0280310829125	594.052993113317	0.0	652.5963040242689	730.8527781150941	0.0	690.925833646766	822.6008697519914	0.0
261	8.725588235294119	502.0956934650446	866.3286390571565	0.0	451.08410645869617	881.6774739129454	0.0	445.1569855905636	1078.8936856050786	0.0	439.8260462473079	1282.9780528811746	0.0	408.3814189850066	1332.708390135794	0.0	385.35230609207366	1328.7073136773147	0.0	455.19958602488407	1325.7268824249813	0.0	552.317166938735	881.619697568608	0.0	548.4879260779051	1073.274334863053	0.0	542.8044635556505	1266.926183438358	0.0	539.0819227566526	1338.7663997324223	0.0	569.3824707851705	1336.1383448782474	0.0	533.003255470528	1299.7439859559952	0.0	514.0802118904371	550.0572477597402	0.0	511.4199631159436	405.9396124971013	0.0	487.5401046815396	498.57823999366013	0.0	415.6866717727914	586.2058439213982	0.0	375.17425166865814	717.9312777636108	0.0	349.40389033476816	819.7987334095222	0.0	605.1403288073986	592.6909005233964	0.0	650.9254695898323	729.129637674956	0.0	689.617744975963	823.8874543495526	0.0
262	8.759019607843138	501.6069440294598	868.1325680499293	0.0	451.0882543890245	882.794636962266	0.0	445.5750087980392	1081.7792956304634	0.0	442.93734003927585	1285.8454535211197	0.0	417.8192762205829	1340.003742429072	0.0	392.04131625952954	1335.1432271416274	0.0	457.28423403054126	1327.8023431791485	0.0	551.6327750594393	881.9149907933022	0.0	548.6908610599523	1074.3295850584836	0.0	542.2539476681285	1266.6375715168335	0.0	539.8608122507062	1340.7677649893728	0.0	569.1102740607276	1336.9092080161324	0.0	532.1795284102258	1299.9051407489412	0.0	510.52870646272703	548.1452758139271	0.0	509.29448280615077	402.8953757232783	0.0	488.81464398174097	495.0332132610431	0.0	412.0037491598211	585.5516259053409	0.0	373.60438382815033	718.0753549132044	0.0	348.0892291351904	819.6664015977466	0.0	602.7997853732493	590.8649823191915	0.0	649.2519742885103	728.2506329538846	0.0	688.5500828896345	824.7337383821417	0.0
263	8.792450980392157	500.6688826037475	868.5840850758053	0.0	450.66270378143406	882.9195730647509	0.0	446.36541601910267	1083.8587675851356	0.0	446.6976709421598	1288.9607603169377	0.0	428.8731262121886	1348.865421636708	0.0	399.1252763371677	1343.1854066489786	0.0	459.13054803744734	1329.316316424577	0.0	551.1888708397455	882.228383309194	0.0	548.2449386813023	1073.739805536412	0.0	541.5740562820844	1266.1402037316498	0.0	541.9948946797033	1342.3448658976222	0.0	570.5452025835308	1336.206272688024	0.0	531.7022909870492	1299.9233814126133	0.0	507.2962319275474	546.3113745357101	0.0	505.8267657969285	400.266141691086	0.0	488.7128373202391	491.4763012595455	0.0	407.83392918064635	584.9130798572793	0.0	371.67681939139965	718.8891805976798	0.0	347.0586058287639	819.4931637595448	0.0	600.3060433275559	589.7520488137776	0.0	647.7791253934373	728.4927441448215	0.0	687.9800007560208	824.5437323708356	0.0
